<svg width="20" height="21" viewBox="0 0 20 21" fill="none" xmlns="http://www.w3.org/2000/svg">
<path fill-rule="evenodd" clip-rule="evenodd" d="M10 20.7883C4.477 20.7883 0 16.3113 0 10.7883C0 5.26533 4.477 0.78833 10 0.78833C15.523 0.78833 20 5.26533 20 10.7883C20 16.3113 15.523 20.7883 10 20.7883ZM18 10.7883C18 8.6666 17.1571 6.63177 15.6569 5.13148C14.1566 3.63119 12.1217 2.78833 10 2.78833C7.87827 2.78833 5.84344 3.63119 4.34315 5.13148C2.84285 6.63177 2 8.6666 2 10.7883C2 12.9101 2.84285 14.9449 4.34315 16.4452C5.84344 17.9455 7.87827 18.7883 10 18.7883C12.1217 18.7883 14.1566 17.9455 15.6569 16.4452C17.1571 14.9449 18 12.9101 18 10.7883ZM14 9.78833C14.2652 9.78833 14.5196 9.89369 14.7071 10.0812C14.8946 10.2688 15 10.5231 15 10.7883C15 11.0535 14.8946 11.3079 14.7071 11.4954C14.5196 11.683 14.2652 11.7883 14 11.7883H11C9.9 11.7883 9 10.8883 9 9.78833V5.78833C9 5.52311 9.10536 5.26876 9.29289 5.08122C9.48043 4.89369 9.73478 4.78833 10 4.78833C10.2652 4.78833 10.5196 4.89369 10.7071 5.08122C10.8946 5.26876 11 5.52311 11 5.78833V9.78833H14Z" fill="#FDF5E9"/>
</svg>
